# xmcd
#
# Track frame offsets: 
#        182
#        14927
#        23777
#        36865
#        45625
#        53040
#        66502
#        83865
#        97040
#        112602
#        124155
#        139817
#        148045
#        164840
#        173365
#        185020
#        193837
#        208930
#        215372
#        234077
#
# Disc length: 3269 seconds
#
# Revision: 0
# Processed by: cddbd v1.4PL0 Copyright (c) Steve Scherf et al.
# Submitted via: ExactAudioCopy v0.90b3
#
DISCID=280cc314
DTITLE=Various Artist - A Christmas Collection
DYEAR=1900
DGENRE=
TTITLE0=The Christmas Song
TTITLE1=Let It Snow! Let It Snow! Let It Snow!
TTITLE2=The Christmas Waltz
TTITLE3=Frosty The Snowman
TTITLE4=Jingle Bells
TTITLE5=Winter Wonderland
TTITLE6=Do You Heart What I Hear?
TTITLE7=When A Child Is Born
TTITLE8=Walking IN The Air
TTITLE9=Blue Christmas
TTITLE10=Little Donkey
TTITLE11=The First Noel
TTITLE12=Here Is Christmas
TTITLE13=The Happiest Christmas Tree
TTITLE14=Santa Claus Is Coming To Town
TTITLE15=Happy Holiday
TTITLE16=Mary's Boy Child
TTITLE17=The Christmas Bells
TTITLE18=The Twelve Days of Christmas
TTITLE19=White Christmas
EXTD=
EXTT0=
EXTT1=
EXTT2=
EXTT3=
EXTT4=
EXTT5=
EXTT6=
EXTT7=
EXTT8=
EXTT9=
EXTT10=
EXTT11=
EXTT12=
EXTT13=
EXTT14=
EXTT15=
EXTT16=
EXTT17=
EXTT18=
EXTT19=
PLAYORDER=
